<?xml version="1.0" encoding="UTF-8"?>
<svg id="Layer_1" data-name="Layer 1" xmlns="http://www.w3.org/2000/svg" xmlns:xlink="http://www.w3.org/1999/xlink" viewBox="0 0 148.97 164.82">
  <defs>
    <style>
      .cls-1 {
        filter: url(#drop-shadow-1);
      }

      .cls-1, .cls-2 {
        fill: #fff;
      }

      .cls-3 {
        fill: #285c2d;
      }

      .cls-2 {
        filter: url(#drop-shadow-2);
      }
    </style>
    <filter id="drop-shadow-1" x="7.37" y="18.66" width="97.44" height="146.16" filterUnits="userSpaceOnUse">
      <feOffset dx="7" dy="7"/>
      <feGaussianBlur result="blur" stdDeviation="5"/>
      <feFlood flood-color="#231f20" flood-opacity=".75"/>
      <feComposite in2="blur" operator="in"/>
      <feComposite in="SourceGraphic"/>
    </filter>
    <filter id="drop-shadow-2" x="51.53" y="18.66" width="97.44" height="146.16" filterUnits="userSpaceOnUse">
      <feOffset dx="7" dy="7"/>
      <feGaussianBlur result="blur-2" stdDeviation="5"/>
      <feFlood flood-color="#231f20" flood-opacity=".75"/>
      <feComposite in2="blur-2" operator="in"/>
      <feComposite in="SourceGraphic"/>
    </filter>
  </defs>
  <circle class="cls-3" cx="71.33" cy="71.33" r="71.33"/>
  <path class="cls-1" d="M15.58,26.84c10.2,5.69,33.03,20.22,49.55,48.8,16.43,28.44,17.67,55.32,17.53,67.01-18.36-30.95-36.62-62.33-54.77-94.15-4.12-7.23-8.22-14.45-12.3-21.66Z"/>
  <path class="cls-2" d="M126.78,26.84c-10.2,5.69-33.03,20.22-49.55,48.8-16.43,28.44-17.67,55.32-17.53,67.01,18.36-30.95,36.62-62.33,54.77-94.15,4.12-7.23,8.22-14.45,12.3-21.66Z"/>
</svg>